<?xml version="1.0" ?><!DOCTYPE svg  PUBLIC '-//W3C//DTD SVG 1.1//EN'  'http://www.w3.org/Graphics/SVG/1.1/DTD/svg11.dtd'><svg height="6.72in" style="shape-rendering:geometricPrecision; text-rendering:geometricPrecision; image-rendering:optimizeQuality; fill-rule:evenodd; clip-rule:evenodd" viewBox="0 0 6.72 6.72" width="6.72in" xml:space="preserve" xmlns="http://www.w3.org/2000/svg" xmlns:xlink="http://www.w3.org/1999/xlink"><defs><style type="text/css">
   <![CDATA[
    .fil13 {fill:none}
    .fil1 {fill:#2B313D}
    .fil6 {fill:#304153}
    .fil8 {fill:#324558}
    .fil4 {fill:#34495E}
    .fil0 {fill:#3498DB}
    .fil3 {fill:#424A60}
    .fil11 {fill:#B7B7B7}
    .fil2 {fill:#EF5350}
    .fil10 {fill:#FAFAFA}
    .fil9 {fill:#FF9800}
    .fil7 {fill:#FFEDDF}
    .fil12 {fill:white}
    .fil5 {fill:#2B313D;fill-rule:nonzero}
   ]]>
  </style></defs><g id="Layer_x0020_1"><g id="_212397920"><rect class="fil0" height="0.407366" id="_213306816" width="0.373012" x="5.0805" y="1.74173"/><polygon class="fil1" id="_213306984" points="3.5342,3.25109 3.1858,3.25109 3.1858,3.46891 3.5342,3.46891 "/><path class="fil2" d="M1.96581 1.99737l0.348402 -0.498752 2.09102 0 0.348957 0.498752 0.801488 0c0.182984,0 0.330988,0.148004 0.330988,0.330988l0 2.55899c0,0.18428 -0.149331,0.334043 -0.333917,0.334043l-4.3855 0c-0.184587,0 -0.333917,-0.149764 -0.333917,-0.334043l0 -2.55899c0,-0.182984 0.148004,-0.330988 0.330988,-0.330988l0.801488 0z" id="_213306576"/><path class="fil3" d="M1.87884 3.36028c0,0.818161 0.663272,1.48088 1.48143,1.48088 0.818039,0 1.48088,-0.662717 1.48088,-1.48088 0,-0.818161 -0.662839,-1.48143 -1.48088,-1.48143 -0.818161,0 -1.48143,0.663272 -1.48143,1.48143z" id="_213306960"/><g><path class="fil4" d="M1.87884 3.36028c0,0.818039 0.663272,1.48088 1.48143,1.48088 0.818039,0 1.48088,-0.662839 1.48088,-1.48088 0,-0.818161 -0.662839,-1.48143 -1.48088,-1.48143 -0.818161,0 -1.48143,0.663272 -1.48143,1.48143z" id="_213307152"/><path class="fil5" d="M3.36028 4.92828l0 0 -0.080626 -0.00203543 -0.079622 -0.00605118 -0.0784921 -0.0099685 -0.0772598 -0.0137874 -0.0759134 -0.0175079 -0.0744646 -0.0211339 -0.0729134 -0.0246575 -0.0712559 -0.0280787 -0.0695039 -0.0314016 -0.0676457 -0.0346299 -0.0656929 -0.037752 -0.0636417 -0.0407795 -0.0614843 -0.0437008 -0.0592441 -0.0465354 -0.0569016 -0.0492598 -0.0544567 -0.0518976 -0.0519213 -0.0544331 -0.0492874 -0.056874 -0.0465591 -0.0592205 -0.0437244 -0.0614685 -0.0407992 -0.0636142 -0.0377717 -0.0656654 -0.0346496 -0.0676299 -0.0314213 -0.0694803 -0.0280984 -0.0712362 -0.0246732 -0.0728976 -0.0211457 -0.0744488 -0.0175236 -0.0758976 -0.0137953 -0.077248 -0.00997244 -0.0784803 -0.00605512 -0.0796142 -0.00203937 -0.0806142 0.174244 0 0.0018189 0.0718268 0.00538583 0.0708268 0.00887008 0.0697638 0.0122598 0.068626 0.015563 0.0674094 0.0187756 0.0661102 0.0219094 0.0647244 0.0249567 0.0632677 0.0279094 0.0617244 0.0307835 0.0600787 0.0335748 0.0583583 0.0362638 0.0565512 0.0388819 0.0546496 0.0414016 0.0526614 0.0438386 0.0505906 0.0461811 0.0484173 0.0484409 0.0461575 0.0506102 0.0438189 0.052685 0.0413858 0.0546732 0.0388583 0.0565709 0.036252 0.0583858 0.0335472 0.0601102 0.0307717 0.0617402 0.0278976 0.0632874 0.0249449 0.0647559 0.0218937 0.0661339 0.0187717 0.0674252 0.0155551 0.0686457 0.012252 0.0697913 0.00885827 0.0708425 0.00538976 0.0718386 0.00181496 0 0 0 0.174244zm1.568 -1.568l0 0 -0.00203543 0.0806142 -0.00605118 0.0796102 -0.0099685 0.0784764 -0.0137874 0.0772441 -0.0175079 0.0758976 -0.0211378 0.0744488 -0.0246535 0.0728898 -0.0280827 0.0712362 -0.0314055 0.0694843 -0.0346299 0.067626 -0.037752 0.0656693 -0.0407795 0.0636142 -0.0437008 0.0614685 -0.0465394 0.0592205 -0.0492598 0.056874 -0.0518976 0.054437 -0.054437 0.0518976 -0.056874 0.0492598 -0.0592205 0.0465394 -0.0614685 0.0437008 -0.0636142 0.0407795 -0.0656693 0.037752 -0.067626 0.0346299 -0.0694843 0.0314055 -0.0712362 0.0280827 -0.0728898 0.0246535 -0.0744488 0.0211378 -0.0758976 0.0175079 -0.0772441 0.0137874 -0.0784764 0.0099685 -0.0796102 0.00605118 -0.0806142 0.00203543 0 -0.174244 0.0718268 -0.00181496 0.0708307 -0.00538976 0.0697677 -0.00885827 0.0686299 -0.012252 0.0674094 -0.0155551 0.0661102 -0.0187677 0.0647323 -0.0218976 0.0632677 -0.0249409 0.0617205 -0.0278937 0.0600827 -0.0307717 0.0583543 -0.0335472 0.0565512 -0.036252 0.0546496 -0.0388583 0.0526614 -0.0413819 0.0505906 -0.0438189 0.0484134 -0.0461575 0.0461575 -0.0484134 0.0438189 -0.0505906 0.0413819 -0.0526614 0.0388583 -0.0546496 0.036252 -0.0565512 0.0335472 -0.0583543 0.0307717 -0.0600827 0.0278937 -0.0617205 0.0249409 -0.0632677 0.0218976 -0.0647323 0.0187677 -0.0661102 0.0155551 -0.0674094 0.012252 -0.0686299 0.00885827 -0.0697677 0.00538976 -0.0708307 0.00181496 -0.0718268 0 0 0.174244 0zm-1.568 -1.56856l0 0 0.0806142 0.00203937 0.0796142 0.00605512 0.0784803 0.00997244 0.077248 0.0137953 0.0758976 0.0175236 0.0744488 0.0211457 0.0728976 0.0246732 0.0712362 0.0280984 0.0694803 0.0314213 0.0676299 0.0346496 0.0656654 0.0377717 0.0636142 0.0407992 0.0614685 0.0437244 0.0592205 0.0465591 0.056874 0.0492874 0.0544331 0.0519213 0.0518976 0.0544606 0.0492598 0.0568976 0.0465354 0.0592441 0.0437008 0.0614843 0.0407795 0.0636417 0.037752 0.0656929 0.0346299 0.0676457 0.0314016 0.0695039 0.0280827 0.0712559 0.0246535 0.0729134 0.0211339 0.0744646 0.0175079 0.0759134 0.0137874 0.0772598 0.0099685 0.0784921 0.00605118 0.079622 0.00203543 0.080626 -0.174244 0 -0.00181496 -0.0718386 -0.00538976 -0.0708425 -0.00885827 -0.0697913 -0.012252 -0.0686457 -0.0155551 -0.0674252 -0.0187717 -0.0661339 -0.0218976 -0.0647559 -0.0249409 -0.0632874 -0.0278976 -0.0617402 -0.0307717 -0.0601102 -0.0335472 -0.0583858 -0.036252 -0.0565709 -0.0388583 -0.0546732 -0.0413858 -0.052685 -0.0438189 -0.0506142 -0.0461575 -0.048437 -0.0484173 -0.0461811 -0.0505906 -0.0438386 -0.0526614 -0.0414016 -0.0546496 -0.0388819 -0.0565512 -0.0362638 -0.0583583 -0.0335748 -0.0600787 -0.0307835 -0.0617244 -0.0279094 -0.0632677 -0.0249567 -0.0647244 -0.0219094 -0.0661102 -0.0187756 -0.0674094 -0.015563 -0.068626 -0.0122598 -0.0697638 -0.00887008 -0.0708268 -0.00538583 -0.0718268 -0.0018189 0 0 0 -0.174244zm-1.56856 1.56856l0 0 0.00203937 -0.080626 0.00605512 -0.079626 0.00997244 -0.0785 0.0137953 -0.0772598 0.0175236 -0.0759134 0.0211417 -0.0744646 0.0246732 -0.0729173 0.0280984 -0.0712559 0.0314173 -0.0695039 0.0346496 -0.0676496 0.0377717 -0.0656929 0.0407953 -0.0636378 0.0437283 -0.0614882 0.0465551 -0.0592402 0.0492874 -0.0569016 0.0519173 -0.0544567 0.0544567 -0.0519173 0.0569016 -0.0492874 0.0592402 -0.0465551 0.0614882 -0.0437283 0.0636378 -0.0407953 0.0656929 -0.0377717 0.0676496 -0.0346496 0.0695039 -0.0314173 0.0712559 -0.0280984 0.0729173 -0.0246732 0.0744646 -0.0211417 0.0759134 -0.0175236 0.0772598 -0.0137953 0.0785 -0.00997244 0.079626 -0.00605512 0.080626 -0.00203937 0 0.174244 -0.0718386 0.0018189 -0.0708386 0.00538583 -0.0697835 0.00887008 -0.0686457 0.0122598 -0.0674252 0.015563 -0.0661339 0.0187795 -0.064752 0.0219094 -0.0632874 0.0249567 -0.0617402 0.0279134 -0.0601063 0.0307835 -0.0583858 0.0335748 -0.0565748 0.0362677 -0.0546693 0.038878 -0.052689 0.0414055 -0.0506102 0.0438386 -0.0484409 0.046185 -0.046185 0.0484409 -0.0438386 0.0506102 -0.0414055 0.052689 -0.038878 0.0546693 -0.0362677 0.0565748 -0.0335748 0.0583858 -0.0307835 0.0601063 -0.0279134 0.0617402 -0.0249567 0.0632874 -0.0219094 0.064752 -0.0187795 0.0661339 -0.015563 0.0674252 -0.0122598 0.0686457 -0.00887008 0.0697835 -0.00538583 0.0708386 -0.0018189 0.0718386 0 0 -0.174244 0z" id="_2133071521"/></g><g><path class="fil6" d="M2.40146 3.36c0,0.529193 0.429224,0.958539 0.958539,0.958539 0.529224,0 0.958539,-0.429346 0.958539,-0.958539 0,-0.529315 -0.429315,-0.958539 -0.958539,-0.958539 -0.529315,0 -0.958539,0.429224 -0.958539,0.958539z"/><path class="fil5" d="M3.36 4.40566l0 0 -0.0537165 -0.00135827 -0.053063 -0.00403937 -0.0523268 -0.00664567 -0.0515118 -0.00920472 -0.0506181 -0.011689 -0.0496496 -0.0141024 -0.048622 -0.0164567 -0.0475079 -0.0187402 -0.0463386 -0.0209528 -0.0451024 -0.0231063 -0.0437913 -0.025189 -0.0424252 -0.0272008 -0.0409882 -0.0291535 -0.0394843 -0.0310354 -0.0379291 -0.0328583 -0.0362953 -0.0346102 -0.0346102 -0.0362992 -0.0328543 -0.0379331 -0.0310276 -0.0394843 -0.0291496 -0.0409882 -0.0271969 -0.0424252 -0.025185 -0.0437953 -0.0230984 -0.0450984 -0.0209528 -0.0463346 -0.0187323 -0.0475079 -0.0164567 -0.0486142 -0.0141024 -0.0496496 -0.011685 -0.0506102 -0.00919685 -0.0514961 -0.00664961 -0.0523189 -0.00403543 -0.0530591 -0.00135827 -0.0537047 0.174244 0 0.0011378 0.0449173 0.00336614 0.0442638 0.00554724 0.0436024 0.00766142 0.0428819 0.00972441 0.042122 0.0117323 0.041311 0.0136929 0.0404488 0.0155984 0.0395394 0.0174409 0.0385787 0.0192402 0.037563 0.0209803 0.0364882 0.0226693 0.0353543 0.0243071 0.0341772 0.0258858 0.0329409 0.0274055 0.0316417 0.0288701 0.0302835 0.0302874 0.028878 0.0316378 0.0274094 0.0329331 0.0258858 0.0341772 0.0243031 0.0353622 0.0226811 0.0364843 0.0209843 0.0375591 0.0192402 0.0385827 0.0174488 0.0395394 0.0155984 0.0404567 0.0136929 0.041311 0.0117402 0.0421299 0.00972835 0.0428819 0.00766142 0.0436102 0.00554331 0.0442835 0.00337008 0.0449213 0.0011378 0 0 0 0.174244zm1.04566 -1.04566l0 0 -0.00135827 0.0537047 -0.00403543 0.0530591 -0.00664961 0.0523228 -0.00920472 0.0515 -0.011685 0.0506063 -0.0141024 0.0496457 -0.0164567 0.0486181 -0.0187402 0.0475079 -0.0209528 0.0463346 -0.0231024 0.0450984 -0.025185 0.0437992 -0.0272087 0.0424213 -0.0291457 0.0409843 -0.0310354 0.0394882 -0.0328543 0.0379331 -0.0346102 0.0362992 -0.0362953 0.0346063 -0.0379291 0.0328583 -0.0394921 0.0310394 -0.0409843 0.0291496 -0.0424252 0.0272008 -0.0437913 0.025189 -0.0451024 0.0231063 -0.0463346 0.0209528 -0.0475118 0.0187402 -0.0486142 0.0164567 -0.0496457 0.0141024 -0.0506142 0.011689 -0.0515079 0.00920472 -0.0523189 0.00664567 -0.0530591 0.00403937 -0.0537087 0.00135827 0 -0.174244 0.0449134 -0.0011378 0.0442717 -0.00337008 0.0436024 -0.00554331 0.0428858 -0.00766142 0.0421181 -0.00972835 0.041315 -0.0117402 0.0404488 -0.0136929 0.0395433 -0.0155984 0.0385787 -0.0174488 0.0375591 -0.0192402 0.0364843 -0.0209843 0.0353622 -0.0226811 0.0341811 -0.0243071 0.0329331 -0.0258819 0.0316378 -0.0274094 0.0302874 -0.0288819 0.028878 -0.0302835 0.0274055 -0.0316417 0.0258858 -0.032937 0.024311 -0.0341811 0.0226732 -0.0353583 0.0209803 -0.0364843 0.0192441 -0.037563 0.0174488 -0.0385787 0.0155984 -0.0395394 0.0136929 -0.0404449 0.0117323 -0.041315 0.00973228 -0.042126 0.00766142 -0.042878 0.00554724 -0.0435984 0.00336614 -0.0442638 0.0011378 -0.0449173 0 0 0.174244 0zm-1.04566 -1.04566l0 0 0.0537047 0.00135827 0.053063 0.00403543 0.0523189 0.00664961 0.0515039 0.00919685 0.0506102 0.011685 0.0496496 0.0141024 0.0486142 0.0164567 0.0475079 0.0187323 0.0463386 0.0209528 0.0451024 0.0230984 0.0437874 0.025185 0.0424252 0.0271969 0.0409921 0.0291496 0.0394882 0.0310315 0.0379291 0.0328543 0.0362953 0.0346063 0.0346142 0.0362992 0.0328504 0.0379252 0.0310354 0.0394843 0.0291535 0.0409882 0.0272047 0.0424252 0.0251811 0.0437953 0.0231063 0.0450984 0.0209528 0.0463386 0.0187402 0.0475079 0.0164567 0.048626 0.0141024 0.0496496 0.011685 0.0506142 0.00920472 0.0515079 0.00664961 0.0523307 0.00403543 0.0530669 0.00135827 0.0537126 -0.174244 0 -0.0011378 -0.0449252 -0.00336614 -0.0442795 -0.00554724 -0.0436063 -0.00766142 -0.0428858 -0.00973228 -0.0421339 -0.0117323 -0.041311 -0.0136929 -0.0404528 -0.0155984 -0.0395394 -0.0174488 -0.0385827 -0.0192402 -0.037563 -0.0209843 -0.0364803 -0.0226772 -0.0353622 -0.0243031 -0.0341772 -0.0258858 -0.0329331 -0.0274094 -0.0316417 -0.028874 -0.0302835 -0.0302874 -0.028874 -0.0316378 -0.0274055 -0.032937 -0.0258819 -0.0341732 -0.0243071 -0.0353622 -0.0226693 -0.0364882 -0.0209803 -0.0375591 -0.0192402 -0.0385748 -0.0174409 -0.0395472 -0.0155984 -0.0404488 -0.0136929 -0.041311 -0.0117323 -0.042122 -0.00972441 -0.0428898 -0.00766142 -0.0436024 -0.00554724 -0.0442677 -0.00336614 -0.0449173 -0.0011378 0 0 0 -0.174244zm-1.04566 1.04566l0 0 0.00135827 -0.0537126 0.00403543 -0.0530669 0.00664961 -0.0523268 0.00919685 -0.0515039 0.011685 -0.050622 0.0141024 -0.0496496 0.0164567 -0.048622 0.0187323 -0.0475039 0.0209528 -0.0463386 0.0230984 -0.0451063 0.025185 -0.0437874 0.0271969 -0.0424252 0.0291496 -0.0409921 0.0310315 -0.0394843 0.0328543 -0.0379291 0.0346063 -0.0362992 0.0362992 -0.0346063 0.0379291 -0.0328543 0.0394843 -0.0310315 0.0409921 -0.0291496 0.0424252 -0.0271969 0.0437874 -0.025185 0.0451063 -0.0230984 0.0463386 -0.0209528 0.0475039 -0.0187323 0.048622 -0.0164567 0.0496496 -0.0141024 0.050622 -0.011685 0.0515039 -0.00919685 0.0523268 -0.00664961 0.0530669 -0.00403543 0.0537126 -0.00135827 0 0.174244 -0.0449252 0.0011378 -0.0442795 0.00336614 -0.0436102 0.00554724 -0.0428898 0.00766142 -0.042126 0.00972441 -0.041311 0.0117323 -0.0404567 0.0136929 -0.0395433 0.0155984 -0.0385827 0.0174409 -0.0375551 0.0192402 -0.0364882 0.0209803 -0.0353622 0.0226693 -0.0341732 0.0243071 -0.0329331 0.0258819 -0.0316378 0.0274055 -0.0302835 0.028874 -0.028874 0.0302835 -0.0274055 0.0316378 -0.0258819 0.0329331 -0.0243071 0.0341732 -0.0226693 0.0353622 -0.0209803 0.0364882 -0.0192402 0.0375551 -0.0174409 0.0385827 -0.0155984 0.0395433 -0.0136929 0.0404567 -0.0117323 0.041311 -0.00972441 0.042126 -0.00766142 0.0428898 -0.00554724 0.0436102 -0.00336614 0.0442795 -0.0011378 0.0449252 0 0 -0.174244 0z" id="1"/></g><path class="fil7" d="M3.09855 3.36026c0,0.144209 0.11698,0.261185 0.261185,0.261185 0.144642,0 0.261709,-0.116976 0.261709,-0.261185 0,-0.144732 -0.117067,-0.261709 -0.261709,-0.261709 -0.144205,0 -0.261154,0.116976 -0.261185,0.261709z"/><g><path class="fil8" d="M3.36028 4.40551c0.576488,0 1.04523,-0.468776 1.04523,-1.04523 0,-0.576488 -0.468744,-1.04579 -1.04523,-1.04579 -0.576457,0 -1.04579,0.469299 -1.04579,1.04579 0,0.576457 0.469331,1.04523 1.04579,1.04523zm0 -1.91652c0.480319,0 0.871295,0.390972 0.871295,0.871291 0,0.480287 -0.390976,0.871295 -0.871295,0.871295 -0.480287,0 -0.871295,-0.391008 -0.871295,-0.871295 0,-0.480319 0.391008,-0.871291 0.871295,-0.871291z"/><path class="fil5" d="M4.49263 3.36028l0 0 -0.00147244 0.058122 -0.00437795 0.0574252 -0.0072126 0.056622 -0.00997638 0.0557402 -0.0126732 0.0547756 -0.0152874 0.0537402 -0.0178346 0.052626 -0.0203071 0.0514331 -0.0227126 0.0501654 -0.0250394 0.0488307 -0.0272913 0.0474134 -0.0294685 0.045937 -0.0315866 0.0443937 -0.033626 0.0427677 -0.0355906 0.0410787 -0.0374921 0.0393228 -0.0393189 0.0374882 -0.0410787 0.0355984 -0.0427717 0.033622 -0.0443819 0.0315827 -0.0459409 0.0294764 -0.0474213 0.0272953 -0.0488307 0.0250394 -0.0501654 0.0227126 -0.0514331 0.0203071 -0.052622 0.0178386 -0.0537441 0.0152874 -0.0547795 0.0126732 -0.0557441 0.00997638 -0.056622 0.0072126 -0.0574252 0.00437795 -0.058126 0.00147244 0 -0.174244 0.049315 -0.00125197 0.0486142 -0.00370866 0.0478976 -0.00610236 0.0471142 -0.00843307 0.0462835 -0.0107047 0.0453976 -0.0129173 0.0444646 -0.0150748 0.0434646 -0.0171654 0.0424094 -0.0192008 0.0412953 -0.0211732 0.040122 -0.0230984 0.0388858 -0.0249488 0.0375866 -0.026748 0.0362283 -0.0284803 0.0347953 -0.0301496 0.0333189 -0.0317717 0.0317677 -0.033315 0.0301496 -0.0348031 0.0284843 -0.0362244 0.0267441 -0.0375827 0.0249488 -0.0388898 0.0230945 -0.040122 0.0211732 -0.0412953 0.0192008 -0.0424094 0.0171654 -0.0434646 0.0150709 -0.0444606 0.0129173 -0.0454016 0.0107047 -0.0462874 0.00843307 -0.0471102 0.00610236 -0.0478898 0.00370866 -0.0486142 0.00125197 -0.049311 0 0 0.174244 0zm-1.13235 -1.13291l0 0 0.0581299 0.00147244 0.0574291 0.00438189 0.0566299 0.00722441 0.055748 0.00998819 0.0547835 0.012685 0.0537402 0.0153071 0.052626 0.0178504 0.051437 0.0203307 0.0501693 0.0227362 0.0488268 0.0250591 0.0474173 0.027315 0.0459449 0.0295039 0.0443819 0.0316063 0.0427717 0.0336535 0.0410709 0.0356181 0.0393189 0.0375157 0.0374921 0.0393504 0.0355866 0.0411024 0.033626 0.0427913 0.0315827 0.0444134 0.0294685 0.0459606 0.0272913 0.0474409 0.0250354 0.0488465 0.0227087 0.050185 0.0203071 0.0514528 0.0178346 0.0526378 0.0152874 0.053752 0.0126693 0.0547913 0.00997638 0.055752 0.0072126 0.0566299 0.00437795 0.0574291 0.00147244 0.058126 -0.174244 0 -0.00125197 -0.049315 -0.00370866 -0.048626 -0.00610236 -0.0478976 -0.00843307 -0.0471299 -0.0107087 -0.0462953 -0.0129173 -0.0454213 -0.0150709 -0.0444803 -0.0171654 -0.0434843 -0.0192047 -0.042437 -0.0211772 -0.0413189 -0.0230945 -0.0401496 -0.0249488 -0.0389055 -0.026748 -0.0376102 -0.0284843 -0.0362559 -0.0301535 -0.0348268 -0.0317677 -0.0333425 -0.0333189 -0.0317913 -0.0348031 -0.0301772 -0.0362283 -0.0285039 -0.0375866 -0.0267717 -0.0388819 -0.0249685 -0.040126 -0.0231102 -0.0412992 -0.0212008 -0.0424055 -0.0192165 -0.0434606 -0.0171811 -0.0444606 -0.0150866 -0.0454016 -0.0129291 -0.0462795 -0.0107165 -0.0471102 -0.00844488 -0.0478898 -0.0061063 -0.0486102 -0.0037126 -0.049311 -0.00125197 0 0 0 -0.174244zm-1.13291 1.13291l0 0 0.00147244 -0.0581339 0.00438583 -0.0574331 0.00722047 -0.0566299 0.00998819 -0.0557598 0.012685 -0.0547913 0.0153031 -0.0537598 0.0178583 -0.0526417 0.0203268 -0.0514488 0.0227323 -0.050189 0.025063 -0.0488465 0.027315 -0.0474449 0.0295 -0.0459567 0.0316102 -0.0444094 0.0336457 -0.0427913 0.0356142 -0.0410984 0.0375157 -0.0393504 0.0393504 -0.0375157 0.0410984 -0.0356142 0.0427913 -0.0336496 0.0444134 -0.0316063 0.0459606 -0.0295 0.0474409 -0.027311 0.0488465 -0.0250591 0.050185 -0.0227323 0.0514528 -0.0203307 0.0526417 -0.0178504 0.053752 -0.0153031 0.0547953 -0.012685 0.055752 -0.00998819 0.0566339 -0.00722441 0.0574331 -0.00438189 0.058126 -0.00147244 0 0.174244 -0.0493071 0.00125197 -0.0486142 0.0037126 -0.0478937 0.0061063 -0.047122 0.00844488 -0.0462992 0.0107165 -0.0454134 0.0129331 -0.0444764 0.0150866 -0.0434843 0.0171811 -0.0424291 0.0192205 -0.0413189 0.0212008 -0.0401496 0.0231142 -0.0389134 0.0249724 -0.0376102 0.0267717 -0.0362559 0.0285079 -0.0348307 0.0301811 -0.0333425 0.0317913 -0.0317913 0.0333425 -0.0301811 0.0348307 -0.0285118 0.0362559 -0.0267756 0.0376142 -0.0249724 0.0389094 -0.0231181 0.0401457 -0.0211969 0.0413189 -0.0192205 0.0424331 -0.017185 0.0434882 -0.0150866 0.0444764 -0.0129331 0.0454134 -0.0107165 0.0462953 -0.00844488 0.047122 -0.00610236 0.0478976 -0.00371654 0.048622 -0.00125197 0.0493071 0 0 -0.174244 0zm1.13291 1.13235l0 0 -0.058122 -0.00147244 -0.0574291 -0.00437795 -0.056626 -0.0072126 -0.055748 -0.00997638 -0.0547953 -0.0126693 -0.053752 -0.0152874 -0.0526378 -0.0178386 -0.0514488 -0.0203071 -0.050185 -0.0227126 -0.0488465 -0.0250354 -0.0474409 -0.0272913 -0.0459606 -0.0294724 -0.0444134 -0.0315827 -0.0427913 -0.033622 -0.0411063 -0.0355906 -0.0393465 -0.0374921 -0.0375197 -0.0393189 -0.0356142 -0.0410748 -0.0336496 -0.0427638 -0.0316142 -0.0443898 -0.0295 -0.0459409 -0.0273189 -0.0474134 -0.025063 -0.0488307 -0.0227362 -0.0501693 -0.0203268 -0.0514331 -0.0178583 -0.052626 -0.0153071 -0.0537441 -0.012685 -0.0547835 -0.00998819 -0.0557441 -0.00722047 -0.056626 -0.00438583 -0.0574252 -0.00147244 -0.0581299 0.174244 0 0.00125197 0.0493031 0.00371654 0.0486142 0.00610236 0.0478858 0.00844488 0.0471063 0.0107165 0.0462795 0.0129291 0.0453976 0.0150866 0.0444606 0.017185 0.0434646 0.0192165 0.0424055 0.0211969 0.0412953 0.0231142 0.040122 0.0249724 0.0388858 0.0267717 0.0375866 0.0285079 0.0362283 0.0301811 0.0348071 0.0317874 0.0333189 0.0333465 0.0317677 0.0348228 0.0301575 0.0362559 0.0284803 0.0376102 0.026748 0.0389134 0.0249528 0.0401496 0.0231024 0.0413189 0.0211772 0.0424291 0.0192008 0.0434882 0.0171654 0.0444803 0.0150748 0.0454134 0.0129173 0.0462992 0.0107087 0.047126 0.00843307 0.0479016 0.00610236 0.0486181 0.00370866 0.049311 0.00125197 0 0 0 0.174244zm0.784173 -1.13235l0 0 -0.00102756 -0.0403504 -0.00303543 -0.0397756 -0.00499213 -0.0391732 -0.00690551 -0.0385394 -0.00876378 -0.0378661 -0.0105787 -0.0371378 -0.0123386 -0.0363819 -0.0140512 -0.035563 -0.0157205 -0.0347047 -0.0173386 -0.0337953 -0.0189094 -0.0328425 -0.0204252 -0.0318307 -0.0218976 -0.0307677 -0.0233268 -0.0296575 -0.0246929 -0.0284961 -0.0260079 -0.0272756 -0.0272795 -0.0260157 -0.0284921 -0.024689 -0.0296575 -0.0233189 -0.0307717 -0.0219016 -0.0318307 -0.0204252 -0.0328425 -0.0189094 -0.0337953 -0.0173386 -0.0347047 -0.0157205 -0.035563 -0.0140512 -0.0363819 -0.0123386 -0.0371378 -0.0105787 -0.0378661 -0.00876378 -0.0385394 -0.00690551 -0.0391732 -0.00499213 -0.0397756 -0.00303543 -0.0403504 -0.00102756 0 -0.174244 0.0491693 0.00124803 0.0485866 0.00370472 0.0479134 0.00611024 0.0471772 0.00844882 0.0463622 0.0107323 0.0454843 0.0129488 0.0445315 0.0151024 0.0435394 0.0172008 0.0424606 0.0192323 0.0413228 0.0211969 0.0401339 0.0231063 0.038878 0.0249528 0.0375669 0.0267362 0.0362008 0.0284606 0.0347677 0.0301299 0.0332795 0.0317323 0.0317323 0.0332756 0.030126 0.0347717 0.0284606 0.0361929 0.0267402 0.0375709 0.0249528 0.038878 0.0231063 0.0401339 0.0211969 0.0413228 0.0192323 0.0424606 0.0172008 0.0435394 0.0151024 0.0445315 0.0129488 0.0454843 0.0107323 0.0463622 0.00844882 0.0471772 0.00611024 0.0479134 0.00370472 0.0485866 0.00124803 0.0491693 0 0 -0.174244 0zm-0.784173 0.784173l0 0 0.0403504 -0.00102756 0.0397717 -0.00303543 0.0391732 -0.00499606 0.0385433 -0.00690551 0.0378661 -0.00876378 0.0371378 -0.0105787 0.0363819 -0.0123386 0.035563 -0.0140512 0.0347008 -0.0157205 0.0337992 -0.0173386 0.0328425 -0.0189134 0.0318268 -0.0204252 0.0307717 -0.0219055 0.0296614 -0.023315 0.0284921 -0.0246969 0.0272795 -0.0260118 0.0260079 -0.0272756 0.0246929 -0.0285 0.0233268 -0.0296575 0.0218976 -0.0307677 0.0204252 -0.0318346 0.0189094 -0.0328386 0.0173386 -0.0337953 0.0157205 -0.0347087 0.0140512 -0.035563 0.0123386 -0.036378 0.0105787 -0.0371417 0.00876378 -0.0378583 0.00690551 -0.0385394 0.00499213 -0.0391732 0.00303543 -0.0397717 0.00102756 -0.0403465 0.174244 0 -0.00124803 0.0491654 -0.00370472 0.0485827 -0.00611024 0.0479134 -0.00844882 0.0471772 -0.0107323 0.0463622 -0.0129488 0.0454803 -0.0151024 0.0445354 -0.0172008 0.0435315 -0.0192323 0.0424567 -0.0211969 0.0413307 -0.0231063 0.0401299 -0.0249528 0.0388819 -0.0267402 0.0375709 -0.0284606 0.0361929 -0.030126 0.0347677 -0.0317323 0.0332835 -0.0332795 0.0317283 -0.0347677 0.0301299 -0.0361969 0.0284646 -0.0375669 0.0267402 -0.0388819 0.0249528 -0.0401339 0.0231024 -0.0413189 0.0212047 -0.0424646 0.0192323 -0.0435394 0.0172008 -0.0445315 0.0151024 -0.0454843 0.0129488 -0.0463622 0.0107323 -0.0471732 0.00844882 -0.0479134 0.00611417 -0.0485906 0.00370472 -0.0491693 0.00124803 0 0 0 -0.174244zm-0.784173 -0.784173l0 0 0.00102756 0.0403465 0.00303543 0.0397677 0.00499606 0.0391732 0.00690551 0.0385433 0.00876378 0.0378583 0.0105787 0.0371417 0.0123386 0.036378 0.0140512 0.035563 0.0157205 0.0347047 0.0173386 0.0337992 0.0189134 0.0328386 0.0204252 0.0318346 0.0219016 0.0307677 0.0233228 0.0296575 0.0246969 0.0284961 0.0260079 0.0272795 0.0272795 0.0260079 0.0284961 0.0247008 0.0296575 0.0233189 0.0307677 0.0219016 0.0318346 0.0204252 0.0328386 0.0189134 0.0337992 0.0173386 0.0347047 0.0157205 0.035563 0.0140512 0.036378 0.0123386 0.0371417 0.0105787 0.0378583 0.00876378 0.0385433 0.00690551 0.0391732 0.00499606 0.0397677 0.00303543 0.0403465 0.00102756 0 0.174244 -0.0491654 -0.00124803 -0.0485866 -0.00370472 -0.0479134 -0.00611417 -0.0471732 -0.00844882 -0.0463622 -0.0107323 -0.0454803 -0.0129488 -0.0445354 -0.0151024 -0.0435315 -0.0172008 -0.0424606 -0.0192323 -0.0413268 -0.0212047 -0.0401299 -0.0231024 -0.0388819 -0.0249528 -0.0375709 -0.0267441 -0.0361929 -0.0284606 -0.0347717 -0.030126 -0.0332795 -0.0317323 -0.0317323 -0.0332795 -0.0301299 -0.0347717 -0.0284567 -0.0361929 -0.0267441 -0.0375709 -0.0249528 -0.0388819 -0.0231024 -0.0401299 -0.0212047 -0.0413268 -0.0192323 -0.0424606 -0.0172008 -0.0435315 -0.0151024 -0.0445354 -0.0129488 -0.0454803 -0.0107323 -0.0463622 -0.00844882 -0.0471732 -0.00611417 -0.0479134 -0.00370472 -0.0485866 -0.00124803 -0.0491654 0 0 0.174244 0zm0.784173 -0.784169l0 0 -0.0403465 0.00102756 -0.0397717 0.00303543 -0.0391732 0.00499213 -0.0385394 0.00690551 -0.0378583 0.00876378 -0.0371417 0.0105787 -0.036378 0.0123386 -0.035563 0.0140512 -0.0347087 0.0157205 -0.0337953 0.0173386 -0.0328386 0.0189094 -0.0318346 0.0204252 -0.0307677 0.0219016 -0.0296575 0.0233189 -0.0284961 0.0246929 -0.0272795 0.0260118 -0.0260118 0.0272756 -0.0246929 0.0284961 -0.0233228 0.0296575 -0.0219016 0.0307717 -0.0204252 0.0318268 -0.0189134 0.0328425 -0.0173386 0.0337992 -0.0157205 0.0347008 -0.0140512 0.035563 -0.0123386 0.0363819 -0.0105787 0.0371378 -0.00876378 0.0378661 -0.00690551 0.0385433 -0.00499606 0.0391732 -0.00303543 0.0397717 -0.00102756 0.0403504 -0.174244 0 0.00124803 -0.0491693 0.00370472 -0.0485906 0.00611417 -0.0479134 0.00844882 -0.0471732 0.0107323 -0.0463622 0.0129488 -0.0454843 0.0151024 -0.0445315 0.0172008 -0.0435394 0.0192323 -0.0424646 0.0212047 -0.0413189 0.0231024 -0.0401339 0.0249528 -0.0388819 0.0267441 -0.0375669 0.0284567 -0.0361929 0.0301339 -0.0347717 0.0317283 -0.0332756 0.0332795 -0.0317362 0.0347717 -0.030126 0.0361929 -0.0284606 0.0375709 -0.0267362 0.0388819 -0.0249528 0.0401299 -0.0231063 0.0413307 -0.0211969 0.0424567 -0.0192323 0.0435315 -0.0172008 0.0445354 -0.0151024 0.0454803 -0.0129488 0.0463622 -0.0107323 0.0471772 -0.00844882 0.0479134 -0.00611024 0.0485827 -0.00370472 0.0491654 -0.00124803 0 0 0 0.174244z" id="1"/></g><path class="fil9" d="M3.27074 3.36009c0,0.0492323 0.0399409,0.0891732 0.0891732,0.0891732 0.0493858,0 0.0893543,-0.0399409 0.0893543,-0.0891732 0,-0.0494173 -0.0399685,-0.0893543 -0.0893543,-0.0893543 -0.0492323,0 -0.0891614,0.039937 -0.0891732,0.0893543z"/><path class="fil0" d="M2.93052 3.36c0,0.237106 0.192319,0.42948 0.42948,0.42948 0.237122,0 0.42948,-0.192374 0.42948,-0.42948 0,-0.237165 -0.192358,-0.42948 -0.42948,-0.42948 -0.237161,0 -0.42948,0.192315 -0.42948,0.42948z"/><circle class="fil10" cx="3.36" cy="3.36" r="0.211939"/><circle class="fil11" cx="1.32679" cy="2.54621" r="0.211939"/><circle class="fil12" cx="1.32679" cy="2.54621" r="0.169638"/><polygon class="fil12" points="1.32777,2.25973 1.39121,2.46626 1.59774,2.5297 1.39121,2.59314 1.32777,2.79967 1.26432,2.59314 1.0578,2.5297 1.26432,2.46626 "/></g></g><rect class="fil13" height="6.72" width="6.72"/></svg>